HIERARCHY
ROOT Hips
{
 OFFSET 0.000000 0.000000 0.000000
 CHANNELS 6 Xposition Yposition Zposition Yrotation Xrotation Zrotation
 JOINT Chest
 {
  OFFSET 0.000000 10.383400 0.001500
  CHANNELS 3 Yrotation Xrotation Zrotation
  JOINT Chest2
  {
   OFFSET 0.000000 10.418200 -0.003100
   CHANNELS 3 Yrotation Xrotation Zrotation
   JOINT Chest3
   {
    OFFSET 0.000000 10.375100 0.000000
    CHANNELS 3 Yrotation Xrotation Zrotation
    JOINT Chest4
    {
     OFFSET 0.000000 10.364600 0.000000
     CHANNELS 3 Yrotation Xrotation Zrotation
     JOINT Neck
     {
      OFFSET 0.000000 15.642200 0.000000
      CHANNELS 3 Yrotation Xrotation Zrotation
      JOINT Head
      {
       OFFSET 0.000000 9.697300 -0.006500
       CHANNELS 3 Yrotation Xrotation Zrotation
       End Site
       {
        OFFSET 0.000000 18.492200 -0.003400
       }
      }
     }
     JOINT RightCollar
     {
      OFFSET -3.166800 10.349300 0.000000
      CHANNELS 3 Yrotation Xrotation Zrotation
      JOINT RightShoulder
      {
       OFFSET -14.729700 0.000000 0.000000
       CHANNELS 3 Yrotation Xrotation Zrotation
       JOINT RightElbow
       {
        OFFSET 0.000000 -32.224300 0.000000
        CHANNELS 3 Yrotation Xrotation Zrotation
        JOINT RightWrist
        {
         OFFSET 0.000000 -26.084100 0.000000
         CHANNELS 3 Yrotation Xrotation Zrotation
         End Site
         {
          OFFSET 0.000000 -19.319400 0.000000
         }
        }
       }
      }
     }
     JOINT LeftCollar
     {
      OFFSET 3.166800 10.349300 0.000000
      CHANNELS 3 Yrotation Xrotation Zrotation
      JOINT LeftShoulder
      {
       OFFSET 14.729700 0.000000 0.000000
       CHANNELS 3 Yrotation Xrotation Zrotation
       JOINT LeftElbow
       {
        OFFSET 0.000000 -32.224300 0.000000
        CHANNELS 3 Yrotation Xrotation Zrotation
        JOINT LeftWrist
        {
         OFFSET 0.000000 -26.084100 0.000000
         CHANNELS 3 Yrotation Xrotation Zrotation
         End Site
         {
          OFFSET 0.000000 -19.319400 0.000000
         }
        }
       }
      }
     }
    }
   }
  }
 }
 JOINT RightHip
 {
  OFFSET -8.428900 -0.007500 -0.000800
  CHANNELS 3 Yrotation Xrotation Zrotation
  JOINT RightKnee
  {
   OFFSET 0.000000 -43.834600 0.000700
   CHANNELS 3 Yrotation Xrotation Zrotation
   JOINT RightAnkle
   {
    OFFSET 0.000000 -42.757000 0.001200
    CHANNELS 3 Yrotation Xrotation Zrotation
    JOINT RightToe
    {
     OFFSET 0.000000 -6.946900 15.649300
     CHANNELS 3 Yrotation Xrotation Zrotation
     End Site
     {
      OFFSET 0.000000 -1.580800 6.825800
     }
    }
   }
  }
 }
 JOINT LeftHip
 {
  OFFSET 8.428900 -0.007500 -0.000800
  CHANNELS 3 Yrotation Xrotation Zrotation
  JOINT LeftKnee
  {
   OFFSET 0.000000 -43.834600 0.000700
   CHANNELS 3 Yrotation Xrotation Zrotation
   JOINT LeftAnkle
   {
    OFFSET 0.000000 -42.757000 0.001200
    CHANNELS 3 Yrotation Xrotation Zrotation
    JOINT LeftToe
    {
     OFFSET 0.000000 -6.946900 15.649300
     CHANNELS 3 Yrotation Xrotation Zrotation
     End Site
     {
      OFFSET 0.000000 -1.580800 6.825800
     }
    }
   }
  }
 }
}
MOTION
Frames: 9
Frame Time: 0.008333
23.961598 126.881892 -51.537439 -17.676372 -27.245849 -0.956788 -0.053317 23.506192 2.038125 -0.060224 3.465462 0.294376 -0.087769 5.593146 0.474223 -0.098390 19.707161 1.696807 2.906464 7.439402 -5.008059 8.270270 -21.449511 -11.367807 0.892290 -6.598678 -3.509913 0.515975 -9.739199 -4.753834 2.139418 -2.226394 -9.091228 1.187004 3.143101 -0.310597 -5.000272 -9.130013 -5.613515 3.152853 -6.705607 7.437601 -8.330048 -7.015951 13.397422 -12.645058 -0.115978 -8.969824 -1.204944 -42.736717 6.378577 -20.046007 70.034497 -21.440535 3.922587 0.914680 6.829656 0.001777 -0.000757 0.000789 -2.481641 -34.435898 -11.547481 12.027684 63.218177 11.406390 -8.046069 -2.520508 -7.447441 -0.000119 0.002857 -0.000053
23.961173 126.882195 -51.540598 -17.684145 -27.263494 -0.954676 -0.046840 23.502804 2.033523 -0.059343 3.475778 0.296698 -0.087694 5.592224 0.473746 -0.095389 19.707585 1.693723 2.896181 7.456881 -4.992105 8.263126 -21.424330 -11.346633 0.868797 -6.613939 -3.526996 0.326104 -9.717948 -4.750015 1.863230 -2.354830 -9.032449 1.104132 3.019804 -0.356238 -5.009321 -9.155121 -5.598634 3.151763 -6.645632 7.460838 -8.267821 -7.186443 13.357856 -12.652910 -0.086215 -8.885365 -1.206172 -42.722501 6.377632 -20.060085 70.026675 -21.446705 3.939047 0.925766 6.826228 0.001486 -0.000727 0.000659 -2.492097 -34.423782 -11.529328 12.032043 63.218351 11.394045 -8.039730 -2.511692 -7.451534 -0.000847 0.000817 -0.000376
23.961517 126.882760 -51.543273 -17.691556 -27.282953 -0.949115 -0.050704 23.477499 2.019546 -0.058558 3.473533 0.293910 -0.080738 5.627154 0.480298 -0.100954 19.673792 1.672570 2.892302 7.504159 -4.959415 8.259347 -21.395677 -11.326322 0.852443 -6.596295 -3.528192 0.164314 -9.712761 -4.744084 1.527213 -2.476619 -8.968123 1.027473 2.891730 -0.321927 -5.034083 -9.236073 -5.571878 3.170444 -6.508622 7.488899 -8.209290 -7.367495 13.314362 -12.645465 -0.072900 -8.775918 -1.202099 -42.706994 6.375741 -20.069364 70.023914 -21.453643 3.942192 0.930751 6.826187 0.001853 0.000286 0.000823 -2.501151 -34.410634 -11.515577 12.038592 63.219881 11.382770 -8.037462 -2.503249 -7.454221 -0.001937 -0.001067 -0.000860
23.961794 126.883373 -51.546252 -17.699469 -27.301287 -0.945183 -0.047180 23.477542 2.014597 -0.060725 3.464596 0.291642 -0.080925 5.630111 0.478014 -0.095042 19.691542 1.676272 2.879063 7.505905 -4.948183 8.232468 -21.335419 -11.273013 0.811062 -6.650938 -3.569758 0.051563 -9.696158 -4.709331 1.151168 -2.587578 -8.900805 0.957998 2.761078 -0.224320 -5.056868 -9.317384 -5.565954 3.173501 -6.424727 7.518182 -8.152494 -7.561937 13.264935 -12.624598 -0.072316 -8.645268 -1.206302 -42.694682 6.380835 -20.075228 70.023432 -21.461183 3.946987 0.937413 6.821822 0.003060 -0.000529 0.001358 -2.511145 -34.398112 -11.500717 12.053320 63.220956 11.378915 -8.036609 -2.497490 -7.455313 -0.003175 -0.002019 -0.001409
23.963251 126.884078 -51.549023 -17.705211 -27.319206 -0.936376 -0.045473 23.488950 2.006451 -0.067590 3.439889 0.286636 -0.076136 5.629993 0.475925 -0.096117 19.687090 1.668069 2.867045 7.529093 -4.924475 8.210681 -21.277978 -11.223484 0.751233 -6.726295 -3.608907 -0.016546 -9.650877 -4.658127 0.756141 -2.686594 -8.832161 0.896825 2.628686 -0.080283 -5.068648 -9.330599 -5.551614 3.137082 -6.409488 7.565610 -8.073488 -7.752115 13.185869 -12.591883 -0.080526 -8.496479 -1.216768 -42.688673 6.379266 -20.061607 70.034352 -21.457083 3.955391 0.944106 6.822913 0.002318 -0.005574 0.001029 -2.518835 -34.384775 -11.493848 12.069552 63.219286 11.377374 -8.039090 -2.493015 -7.456093 -0.003310 -0.002879 -0.001469
23.963766 126.885186 -51.551687 -17.711856 -27.340424 -0.932247 -0.049810 23.482472 1.997367 -0.069664 3.432589 0.283593 -0.075049 5.631214 0.476001 -0.099374 19.682062 1.661962 2.869919 7.560567 -4.911874 8.133130 -21.212620 -11.131487 0.723819 -6.767556 -3.632007 -0.091577 -9.651402 -4.627425 0.371732 -2.777277 -8.763354 0.836934 2.497943 0.091456 -5.061588 -9.307212 -5.547178 3.102893 -6.434706 7.597784 -8.012031 -7.964165 13.110269 -12.549550 -0.094278 -8.333773 -1.220544 -42.674064 6.376804 -20.050236 70.037978 -21.446188 3.971575 0.948280 6.819849 0.002444 -0.006251 0.001085 -2.519890 -34.365844 -11.488005 12.073001 63.217410 11.374897 -8.042251 -2.488028 -7.459626 -0.004383 -0.002101 -0.001945
23.963087 126.887342 -51.552985 -17.725394 -27.373074 -0.928939 -0.046679 23.482330 1.989001 -0.070181 3.437134 0.286052 -0.090847 5.573947 0.464367 -0.087831 19.720981 1.657922 2.875169 7.597793 -4.894479 8.133324 -21.196199 -11.121352 0.717020 -6.786966 -3.636782 -0.172878 -9.677333 -4.605557 0.021573 -2.862441 -8.696234 0.770726 2.370379 0.275215 -5.063812 -9.322714 -5.535492 3.074942 -6.434457 7.643168 -7.936461 -8.187554 13.013947 -12.505830 -0.111270 -8.168202 -1.220388 -42.648756 6.377127 -20.067771 70.034881 -21.449841 3.991830 0.960557 6.801051 0.007187 -0.008702 0.003190 -2.516661 -34.335249 -11.477159 12.071911 63.217529 11.368406 -8.052211 -2.477908 -7.460597 -0.006929 0.000465 -0.003076
23.964257 126.887792 -51.557386 -17.731932 -27.384734 -0.924088 -0.057759 23.459570 1.976501 -0.059827 3.462293 0.288715 -0.101894 5.538429 0.461992 -0.116109 19.658758 1.641703 2.862742 7.650324 -4.863632 8.141738 -21.120840 -11.092580 0.742123 -6.747627 -3.645552 -0.207936 -9.656804 -4.587954 -0.326695 -2.998452 -8.636208 0.699073 2.251917 0.462255 -5.042013 -9.270648 -5.536150 3.064456 -6.437060 7.679111 -7.867954 -8.447153 12.917871 -12.464771 -0.130084 -8.007518 -1.219655 -42.645337 6.373308 -20.077445 70.034587 -21.451760 3.983801 0.969459 6.804250 0.004561 -0.009325 0.002024 -2.527130 -34.326827 -11.469000 12.082322 63.211150 11.372167 -8.058340 -2.471601 -7.470207 -0.006604 0.003090 -0.002932
23.964570 126.889378 -51.559984 -17.734338 -27.409623 -0.922272 -0.082744 23.414758 1.963368 -0.047223 3.492251 0.288537 -0.104525 5.545739 0.460980 -0.127158 19.641280 1.635123 2.856801 7.674883 -4.850793 8.118384 -21.078306 -11.057773 0.756296 -6.766468 -3.657601 -0.297611 -9.710303 -4.568991 -0.548742 -3.080455 -8.572935 0.627114 2.148197 0.647243 -5.037176 -9.276944 -5.529606 3.066101 -6.444737 7.704452 -7.796196 -8.729209 12.813801 -12.424995 -0.150455 -7.850539 -1.219371 -42.625798 6.368607 -20.085093 70.032387 -21.451035 3.990065 0.978176 6.804025 0.004739 -0.008912 0.002103 -2.543843 -34.306953 -11.461409 12.103203 63.209775 11.384550 -8.058398 -2.468783 -7.478621 -0.007781 0.004868 -0.003454
